<svg xmlns="http://www.w3.org/2000/svg" width="220" height="64" viewBox="0 0 220 64" role="img" aria-label="eleRide">
  <defs>
    <linearGradient id="g" x1="0" y1="0" x2="1" y2="1">
      <stop offset="0" stop-color="#1bbf6b"/>
      <stop offset="1" stop-color="#1aa8c6"/>
    </linearGradient>
  </defs>

  <!-- Icon (simple approximation) -->
  <g transform="translate(6,6)">
    <path d="M26 2 C18 12, 10 18, 2 20 C12 22, 18 28, 20 40 C22 28, 30 22, 40 20 C32 18, 34 10, 26 2 Z"
          fill="#1bbf6b" opacity="0.15"/>
    <path d="M22 6 L26 2 L30 6 L26 10 Z" fill="#f5b301"/>
    <path d="M26 10
             C18 16 14 22 14 30
             C14 42 22 50 26 52
             C30 50 38 42 38 30
             C38 22 34 16 26 10 Z"
          fill="url(#g)" stroke="#0a7f42" stroke-opacity="0.25" stroke-width="1"/>
    <path d="M26 16 L20 24 L24 24 L24 38 L28 38 L28 24 L32 24 Z" fill="white" opacity="0.85"/>
  </g>

  <!-- Wordmark -->
  <text x="62" y="40" font-family="ui-sans-serif, system-ui, -apple-system, Segoe UI, Roboto, Helvetica, Arial"
        font-size="30" font-weight="700" fill="#1f2937">
    ele<tspan font-weight="800">Ride</tspan>
  </text>
</svg>


